<svg xmlns="http://www.w3.org/2000/svg" viewBox="0 0 1080 1920">
  <rect width="1080" height="1920" fill="#082f49"/>
  <g fill="none" stroke="#67e8f9" stroke-width="6" opacity="0.6">
    <path d="M0 250 C140 120 240 380 380 250 C520 120 620 380 760 250 C900 120 980 380 1080 250"/>
    <path d="M0 620 C140 490 240 750 380 620 C520 490 620 750 760 620 C900 490 980 750 1080 620"/>
    <path d="M0 990 C140 860 240 1120 380 990 C520 860 620 1120 760 990 C900 860 980 1120 1080 990"/>
    <path d="M0 1360 C140 1230 240 1490 380 1360 C520 1230 620 1490 760 1360 C900 1230 980 1490 1080 1360"/>
  </g>
</svg>
